<svg xmlns="http://www.w3.org/2000/svg" viewBox="0 0 336 192" width="1083" height="633">
  <style>
    .label-font {
      font-family: "Courier New", Courier, monospace;
      font-size: 10px;
    }    
    .contact-font {
      font-family: "Courier New", Courier, monospace;
      font-size: 9px;
    }
    .email-font {
      font-family: "Courier New", Courier, monospace;
      font-size: 24px;
    }
    text {
      text-anchor: middle;
      stroke: white;
    }
  </style>
  <defs>
    <filter id="coolEffect">
      <!-- Filter primitives will be written here -->
          <feTurbulence baseFrequency="0.7"/>
          <feColorMatrix values="0 0 0 0 -4
                                 0 5 0 5 -4
                                 0 0 0 0 -4
                                 0 0 0 0 1"/>
    </filter>
  </defs>
  <rect width="336" height="192" filter="url(#coolEffect)"/>
  <rect x="3%" y="5.2%" width="94%" height="89.6%" fill="white" opacity="0%" />
  <!-- <rect x="0" y="0" width="100%" height="100%" fill="white" opacity="100%" /> -->
  <rect x="7%" y="12%" width="86%" height="76%" fill="none" stroke="white" stroke-width="0" />

  <g transform="translate(168, 96)">
    <g fill="none" stroke="white">
      <path name="me path" d="M -142 -30 L -142 -35 L -101 -35 L -101 -30 M -120 -35 L -120 -40"/>
      <path name="website_path" d="M -82 -30 L -82 -35 L 140 -35 L 140 -30 M 17 -35 L 17 -40" />
      <path name="github_path" d="M -97 -5 L -97 -2 L -1 -2 L -1 -5 M -50 -2 L -50 2" />

      <line x1="-55" x2="-55" y1="55" y2="70" stroke="white" />
      <line x1="55" x2="55" y1="55" y2="70" stroke="white" />
    </g>

    <text class="label-font" x="-120" y="-45">me</text>
    <text class="label-font" x="18" y="-45">website</text>
    <text class="label-font" x="-50" y="15">github</text>
    <text class="email-font" x="0" y="-10">zak@zkastl.github.io</text>
    <text class="contact-font" x="-29%" y="65" textLength="21%">zak kastl</text>
    <text class="contact-font" x="0" y="65">zkastl8@gmail.com</text>
    <text class="contact-font" x="29%" y="65">xxx-yyy-zzzz</text>
  </g>
</svg>